<svg width="1400" height="215" viewBox="0 0 1400 215" fill="none" xmlns="http://www.w3.org/2000/svg">
<path d="M495.156 161.25L434.009 1.17224H384.941V211.721H418.911L418.534 53.527L480.813 211.721H508.745L571.024 55.4102L570.647 211.721H604.617V1.17224H555.549L495.156 161.25Z" fill="#181F20"/>
<path d="M727.909 161.25L666.761 1.17224H617.693V211.721H651.663L651.286 53.527L713.565 211.721H741.497L803.776 55.4102L803.399 211.721H837.37V1.17224H788.301L727.909 161.25Z" fill="#181F20"/>
<path d="M980.02 88.212H882.26V1.17224H848.289V119.098H980.02C980.775 170.178 977.365 187.128 927.931 187.128C911.701 187.128 900 183.361 892.451 176.205C887.544 171.308 884.525 164.529 883.015 155.489H848.289C850.176 176.205 858.48 190.894 873.201 200.687C887.544 210.104 905.662 215 927.554 215C1009.07 215 1014.37 176.07 1014.37 115.754V1.17224H980.397L980.02 88.212Z" fill="#181F20"/>
<path d="M1173.48 56.9168V57.0974H1061.38V1.17224H1027.41V211.721H1061.38V88.3596H1173.48L1173.86 211.721H1207.83V1.17224H1173.86L1173.48 56.9168Z" fill="#181F20"/>
<path d="M1284.5 211.721C1314.32 211.721 1334.32 198.915 1344.51 183.096V211.721H1400V177.446H1377.35V56.1635C1377.35 37.3309 1369.43 23.3948 1355.08 14.7317C1340.36 5.69206 1328.66 1.17224 1305.26 1.17224C1290.16 1.17224 1270.91 6.06873 1255.81 15.8617C1240.72 25.278 1232.41 42.2274 1231.66 66.7098H1265.63C1269.02 36.9543 1280.35 29.4212 1312.43 29.4212C1323.38 29.4212 1344.14 32.4344 1344.14 61.8133C1344.14 67.4631 1343.38 71.983 1341.87 74.6195C1339.23 80.2693 1334.32 83.2825 1326.4 84.4125L1284.12 91.1922C1265.63 93.4522 1250.53 99.4786 1238.83 109.648C1227.13 119.818 1221.09 134.507 1221.09 152.963C1221.09 169.913 1227.13 183.849 1239.21 194.772C1250.91 206.071 1266 211.721 1284.5 211.721ZM1292.05 183.096C1282.23 183.096 1273.93 180.082 1266.76 174.809C1259.97 169.159 1256.19 161.626 1256.19 151.833C1256.19 139.404 1261.48 129.611 1272.04 123.961C1292.05 112.661 1330.55 111.155 1343.38 108.142V130.741C1343.38 162.38 1326.02 183.096 1292.05 183.096Z" fill="#181F20"/>
<path fill-rule="evenodd" clip-rule="evenodd" d="M216.507 156.317C226.908 170.188 242.526 178.507 265.557 178.507C287.744 178.507 303.573 169.249 314.406 154.171C325.674 138.49 332.12 115.535 332.12 88.3768H365.262C365.262 120.195 357.792 150.594 341.318 173.522C324.41 197.054 298.671 211.661 265.557 211.661C233.285 211.661 207.336 199.338 189.995 176.212C173.187 153.797 165.851 123.1 165.851 88.3768H198.993C198.993 119.079 205.573 141.735 216.507 156.317Z" fill="#181F20"/>
<path d="M359.831 30.5655C359.831 43.7215 349.17 54.3865 336.019 54.3865C322.868 54.3865 312.207 43.7215 312.207 30.5655C312.207 17.4095 322.868 6.74444 336.019 6.74444C349.17 6.74444 359.831 17.4095 359.831 30.5655Z" fill="#181F20"/>
<path d="M219.185 30.5655C219.185 43.7215 208.524 54.3865 195.373 54.3865C182.222 54.3865 171.56 43.7215 171.56 30.5655C171.56 17.4095 182.222 6.74444 195.373 6.74444C208.524 6.74444 219.185 17.4095 219.185 30.5655Z" fill="#181F20"/>
<path fill-rule="evenodd" clip-rule="evenodd" d="M306.182 121.81H226.426V88.3768H267.543L255.566 6.08834L288.638 1.27114L306.182 121.81Z" fill="#181F20"/>
<path fill-rule="evenodd" clip-rule="evenodd" d="M33.4209 119.294V211.8H0V1.17224H33.4209V67.6596L118.038 0L138.996 26.0426L64.1153 85.861H70.6551C119.876 85.861 159.777 125.777 159.777 175.016V211.8H126.357V175.016C126.357 144.241 101.418 119.294 70.6551 119.294H33.4209Z" fill="#181F20"/>
</svg>
