<svg width="31" height="32" viewBox="0 0 31 32" fill="none" xmlns="http://www.w3.org/2000/svg">
<path d="M14.9067 7.14441L8.1979 13.8532L6.31944 15.7316C3.65173 18.3993 3.65174 22.7245 6.31944 25.3923V25.3923C8.98715 28.06 13.3124 28.06 15.9801 25.3923L17.8585 23.5138L22.4205 18.9518" stroke="#A6B8BA" stroke-width="2" stroke-linecap="round"/>
<path d="M16.5171 19.4886L21.8841 14.1216L23.7625 12.2432C25.6892 10.3165 25.6892 7.19274 23.7625 5.26606V5.26606C21.8359 3.33938 18.7121 3.33938 16.7854 5.26606L14.907 7.14452" stroke="#A6B8BA" stroke-width="2" stroke-linecap="round"/>
<path d="M15.4439 11.9749L12.2237 15.1951L9.00348 18.4153C7.81783 19.6009 7.81783 21.5232 9.00348 22.7089V22.7089C10.1891 23.8945 12.1114 23.8945 13.2971 22.7089L16.5173 19.4887" stroke="#A6B8BA" stroke-width="2" stroke-linecap="round"/>
</svg>
