<svg width="17" height="16" viewBox="0 0 17 16" fill="none" xmlns="http://www.w3.org/2000/svg">
<circle cx="8.74927" cy="8" r="7.5" fill="#EB640A" stroke="#EB640A"/>
<path d="M9.74223 4C9.74223 3.45163 9.29769 3.0071 8.74933 3.0071C8.20096 3.0071 7.75642 3.45163 7.75642 4H9.74223ZM7.75642 12C7.75642 12.5484 8.20096 12.9929 8.74933 12.9929C9.29769 12.9929 9.74223 12.5484 9.74223 12H7.75642ZM12.7493 8.9929C13.2977 8.9929 13.7422 8.54837 13.7422 8C13.7422 7.45163 13.2977 7.00709 12.7493 7.00709V8.9929ZM4.74933 7.00709C4.20096 7.00709 3.75642 7.45163 3.75642 8C3.75642 8.54837 4.20096 8.9929 4.74933 8.9929L4.74933 7.00709ZM7.75642 4V12H9.74223V4H7.75642ZM12.7493 7.00709L4.74933 7.00709L4.74933 8.9929L12.7493 8.9929V7.00709Z" fill="#E8EDED"/>
</svg>
