<svg width="25" height="24" viewBox="0 0 25 24" fill="none" xmlns="http://www.w3.org/2000/svg">
<path d="M22.0299 18.424C21.6821 19.2275 21.2704 19.9672 20.7934 20.6472C20.1432 21.5743 19.6108 22.216 19.2005 22.5724C18.5644 23.1573 17.883 23.4568 17.1532 23.4739C16.6294 23.4739 15.9976 23.3248 15.2622 23.0224C14.5244 22.7214 13.8463 22.5724 13.2263 22.5724C12.5761 22.5724 11.8787 22.7214 11.1328 23.0224C10.3858 23.3248 9.78395 23.4824 9.32383 23.498C8.62405 23.5278 7.92655 23.2197 7.23032 22.5724C6.78595 22.1848 6.23014 21.5204 5.56429 20.5791C4.84989 19.5739 4.26256 18.4084 3.80243 17.0795C3.30965 15.6442 3.06262 14.2543 3.06262 12.9087C3.06262 11.3673 3.39569 10.0379 4.06281 8.92385C4.58711 8.029 5.28461 7.32312 6.15759 6.80493C7.03057 6.28674 7.97382 6.02267 8.98963 6.00578C9.54544 6.00578 10.2743 6.1777 11.1801 6.51559C12.0833 6.85462 12.6633 7.02655 12.9175 7.02655C13.1076 7.02655 13.7519 6.82552 14.8441 6.42473C15.8769 6.05305 16.7486 5.89916 17.4627 5.95978C19.3978 6.11595 20.8516 6.87876 21.8184 8.25303C20.0878 9.30163 19.2317 10.7703 19.2487 12.6544C19.2644 14.122 19.7967 15.3432 20.8431 16.3129C21.3173 16.7629 21.8468 17.1107 22.436 17.3578C22.3082 17.7283 22.1733 18.0832 22.0299 18.424V18.424ZM17.5919 0.960131C17.5919 2.11039 17.1717 3.18439 16.3341 4.17847C15.3232 5.36023 14.1006 6.04311 12.7747 5.93536C12.7578 5.79736 12.748 5.65213 12.748 5.49951C12.748 4.39526 13.2287 3.21349 14.0824 2.24724C14.5086 1.75801 15.0507 1.35122 15.708 1.02671C16.3639 0.707053 16.9843 0.530273 17.5678 0.5C17.5848 0.653772 17.5919 0.807554 17.5919 0.960116V0.960131Z" fill="white"/>
</svg>
