<svg width="17" height="16" viewBox="0 0 17 16" fill="none" xmlns="http://www.w3.org/2000/svg">
<circle cx="8.74927" cy="8" r="7.5" fill="#181F20" stroke="#181F20"/>
<path d="M12.2798 5.87378C12.6675 5.48602 12.6675 4.85735 12.2798 4.4696C11.892 4.08185 11.2634 4.08185 10.8756 4.4696L12.2798 5.87378ZM5.21875 10.1265C4.831 10.5142 4.831 11.1429 5.21875 11.5306C5.6065 11.9184 6.23518 11.9184 6.62293 11.5306L5.21875 10.1265ZM10.8756 11.5306C11.2634 11.9184 11.892 11.9184 12.2798 11.5306C12.6675 11.1429 12.6675 10.5142 12.2798 10.1265L10.8756 11.5306ZM6.62293 4.4696C6.23518 4.08185 5.6065 4.08185 5.21875 4.4696C4.831 4.85735 4.831 5.48602 5.21875 5.87378L6.62293 4.4696ZM10.8756 4.4696L5.21875 10.1265L6.62293 11.5306L12.2798 5.87378L10.8756 4.4696ZM12.2798 10.1265L6.62293 4.4696L5.21875 5.87378L10.8756 11.5306L12.2798 10.1265Z" fill="#E8EDED"/>
</svg>
