<svg width="19" height="18" viewBox="0 0 19 18" fill="none" xmlns="http://www.w3.org/2000/svg">
<circle cx="9.74927" cy="9" r="8" stroke="#D71342" stroke-width="2"/>
<path d="M10.7422 4.5C10.7422 3.95163 10.2976 3.5071 9.74927 3.5071C9.2009 3.5071 8.75636 3.95163 8.75636 4.5L10.7422 4.5ZM8.75636 13.5C8.75636 14.0484 9.2009 14.4929 9.74927 14.4929C10.2976 14.4929 10.7422 14.0484 10.7422 13.5L8.75636 13.5ZM8.75636 9.5625C8.75636 10.1109 9.2009 10.5554 9.74927 10.5554C10.2976 10.5554 10.7422 10.1109 10.7422 9.5625L8.75636 9.5625ZM10.7422 13.125C10.7422 12.5766 10.2976 12.1321 9.74927 12.1321C9.2009 12.1321 8.75636 12.5766 8.75636 13.125L10.7422 13.125ZM8.75636 4.5L8.75636 9.5625L10.7422 9.5625L10.7422 4.5L8.75636 4.5ZM8.75636 13.125L8.75636 13.5L10.7422 13.5L10.7422 13.125L8.75636 13.125Z" fill="#D71342"/>
</svg>
