<svg width="24" height="24" viewBox="0 0 24 24" fill="none" xmlns="http://www.w3.org/2000/svg">
<g clip-path="url(#clip0_4_1210)">
<path d="M0 12C0 5.37258 5.37258 0 12 0V0C18.6274 0 24 5.37258 24 12V12C24 18.6274 18.6274 24 12 24V24C5.37258 24 0 18.6274 0 12V12Z" fill="#C3DAAA"/>
<rect x="2" width="37" height="4" fill="#D71342"/>
<rect x="2" y="4" width="37" height="4" fill="#F0620A"/>
<rect x="2" y="8" width="37" height="4" fill="#A89D00"/>
<rect x="2" y="12" width="37" height="4" fill="#C3DAAA"/>
<rect x="2" y="16" width="37" height="4" fill="#47A2AE"/>
<rect x="2" y="20" width="37" height="4" fill="#6E35B7"/>
<path d="M3.26904 -4.30884L20 12.1724L3.26904 28.6537V-4.30884Z" fill="#181F20"/>
<path d="M-0.548248 -4.30884L16.1827 12.1724L-0.548248 28.6537V-4.30884Z" fill="#774722"/>
<path d="M-4.36523 -4.30884L12.3657 12.1724L-4.36523 28.6537V-4.30884Z" fill="#47A2AE"/>
<path d="M-8.18262 -4.30884L8.54836 12.1724L-8.18262 28.6537V-4.30884Z" fill="#FAA8D6"/>
<path d="M-12 -4.30884L4.73098 12.1724L-12 28.6537V-4.30884Z" fill="#F7FAE5"/>
</g>
<defs>
<clipPath id="clip0_4_1210">
<path d="M0 12C0 5.37258 5.37258 0 12 0V0C18.6274 0 24 5.37258 24 12V12C24 18.6274 18.6274 24 12 24V24C5.37258 24 0 18.6274 0 12V12Z" fill="white"/>
</clipPath>
</defs>
</svg>
