<svg width="25" height="24" viewBox="0 0 25 24" fill="none" xmlns="http://www.w3.org/2000/svg">
<path fill-rule="evenodd" clip-rule="evenodd" d="M23.7893 12.2613C23.7893 11.4459 23.7161 10.6618 23.5802 9.90906H12.7493V14.3575H18.9384C18.6718 15.795 17.8615 17.0129 16.6436 17.8284V20.7138H20.3602C22.5347 18.7118 23.7893 15.7636 23.7893 12.2613Z" fill="#4285F4"/>
<path fill-rule="evenodd" clip-rule="evenodd" d="M12.7492 23.4998C15.8542 23.4998 18.4574 22.47 20.3601 20.7137L16.6435 17.8282C15.6138 18.5182 14.2965 18.9259 12.7492 18.9259C9.754 18.9259 7.21878 16.903 6.31446 14.1848H2.47241V17.1644C4.36468 20.9228 8.25378 23.4998 12.7492 23.4998Z" fill="#34A853"/>
<path fill-rule="evenodd" clip-rule="evenodd" d="M6.31449 14.1851C6.08449 13.4951 5.95381 12.7581 5.95381 12.0001C5.95381 11.2422 6.08449 10.5051 6.31449 9.81512V6.83557H2.47245C1.69359 8.38807 1.24927 10.1444 1.24927 12.0001C1.24927 13.8558 1.69359 15.6122 2.47245 17.1647L6.31449 14.1851Z" fill="#FBBC05"/>
<path fill-rule="evenodd" clip-rule="evenodd" d="M12.7492 5.07386C14.4376 5.07386 15.9536 5.65409 17.1454 6.79364L20.4438 3.49523C18.4522 1.63955 15.849 0.5 12.7492 0.5C8.25378 0.5 4.36469 3.07705 2.47241 6.83545L6.31446 9.815C7.21878 7.09682 9.754 5.07386 12.7492 5.07386Z" fill="#EA4335"/>
</svg>
