<svg width="80" height="80" viewBox="0 0 80 80" fill="none" xmlns="http://www.w3.org/2000/svg">
<g clip-path="url(#clip0_4_1193)">
<path d="M0 40C0 17.9086 17.9086 0 40 0V0C62.0914 0 80 17.9086 80 40V40C80 62.0914 62.0914 80 40 80V80C17.9086 80 0 62.0914 0 40V40Z" fill="#FAA8D6"/>
<rect x="40" y="80" width="40" height="40" transform="rotate(-90 40 80)" fill="#EB640A"/>
<rect y="40" width="40" height="40" transform="rotate(-90 0 40)" fill="#EB640A"/>
<path d="M39.9997 18.3323V61.6656M61.6664 39.9989L18.3331 39.9989" stroke="#181F20" stroke-width="3" stroke-linecap="round"/>
</g>
<defs>
<clipPath id="clip0_4_1193">
<path d="M0 40C0 17.9086 17.9086 0 40 0V0C62.0914 0 80 17.9086 80 40V40C80 62.0914 62.0914 80 40 80V80C17.9086 80 0 62.0914 0 40V40Z" fill="white"/>
</clipPath>
</defs>
</svg>
