<svg width="28" height="24" viewBox="0 0 28 24" fill="none" xmlns="http://www.w3.org/2000/svg">
<mask id="path-1-inside-1_4_1234" fill="white">
<path fill-rule="evenodd" clip-rule="evenodd" d="M25.1127 2.13685C27.962 4.98615 27.962 9.60578 25.1127 12.4551L23.9167 13.6511L23.9474 13.6818L13.6292 24L2.13697 12.5078C-0.712328 9.65851 -0.712324 5.03888 2.13698 2.18958C4.98627 -0.659714 9.6059 -0.659716 12.4552 2.18958L13.5985 3.33285L14.7945 2.13685C17.6438 -0.712448 22.2634 -0.712447 25.1127 2.13685Z"/>
</mask>
<path d="M25.1127 12.4551L23.6985 11.0409L23.6985 11.0409L25.1127 12.4551ZM23.9167 13.6511L22.5025 12.2369L21.0883 13.6511L22.5025 15.0653L23.9167 13.6511ZM23.9474 13.6818L25.3616 15.096L26.7758 13.6818L25.3616 12.2676L23.9474 13.6818ZM13.6292 24L12.215 25.4142L13.6292 26.8284L15.0434 25.4142L13.6292 24ZM2.13697 12.5078L3.55118 11.0936L2.13697 12.5078ZM2.13698 2.18958L3.55119 3.6038L2.13698 2.18958ZM12.4552 2.18958L11.041 3.6038L11.041 3.6038L12.4552 2.18958ZM13.5985 3.33285L12.1843 4.74707L13.5985 6.16128L15.0127 4.74707L13.5985 3.33285ZM14.7945 2.13685L13.3803 0.722637L13.3803 0.722637L14.7945 2.13685ZM26.5269 13.8693C30.1572 10.2389 30.1573 4.35298 26.5269 0.722637L23.6985 3.55106C25.7667 5.61931 25.7667 8.97262 23.6985 11.0409L26.5269 13.8693ZM25.3309 15.0653L26.5269 13.8693L23.6985 11.0409L22.5025 12.2369L25.3309 15.0653ZM22.5025 15.0653L22.5332 15.096L25.3616 12.2676L25.3309 12.2369L22.5025 15.0653ZM22.5332 12.2676L12.215 22.5858L15.0434 25.4142L25.3616 15.096L22.5332 12.2676ZM15.0434 22.5858L3.55118 11.0936L0.722756 13.922L12.215 25.4142L15.0434 22.5858ZM3.55118 11.0936C1.48294 9.02534 1.48294 5.67205 3.55119 3.6038L0.722762 0.77537C-2.90758 4.40572 -2.90759 10.2917 0.722756 13.922L3.55118 11.0936ZM3.55119 3.6038C5.61944 1.53555 8.97274 1.53555 11.041 3.6038L13.8694 0.775369C10.2391 -2.85498 4.35311 -2.85498 0.722762 0.77537L3.55119 3.6038ZM11.041 3.6038L12.1843 4.74707L15.0127 1.91864L13.8694 0.775368L11.041 3.6038ZM13.3803 0.722637L12.1843 1.91864L15.0127 4.74707L16.2087 3.55106L13.3803 0.722637ZM26.5269 0.722637C22.8966 -2.90771 17.0106 -2.90771 13.3803 0.722637L16.2087 3.55106C18.2769 1.48281 21.6302 1.48281 23.6985 3.55106L26.5269 0.722637Z" fill="#EB640A" mask="url(#path-1-inside-1_4_1234)"/>
</svg>
