<svg width="70" height="70" viewBox="0 0 70 70" fill="none" xmlns="http://www.w3.org/2000/svg">
<path fill-rule="evenodd" clip-rule="evenodd" d="M22.7015 47.4792C25.3094 50.9514 29.2254 53.0338 35 53.0338C40.5632 53.0338 44.5321 50.7164 47.2485 46.942C50.0737 43.0164 51.6899 37.2702 51.6899 30.4717H60C60 38.4368 58.1269 46.0466 53.9963 51.786C49.7568 57.6766 43.3031 61.3333 35 61.3333C26.9082 61.3333 20.4018 58.2485 16.0538 52.4593C11.8395 46.8482 10 39.1638 10 30.4717H18.3101C18.3101 38.1572 19.9599 43.8288 22.7015 47.4792Z" fill="#F7FAE5"/>
<path d="M58.6383 15.9998C58.6383 19.2932 55.9651 21.9629 52.6676 21.9629C49.3701 21.9629 46.6969 19.2932 46.6969 15.9998C46.6969 12.7065 49.3701 10.0367 52.6676 10.0367C55.9651 10.0367 58.6383 12.7065 58.6383 15.9998Z" fill="#F7FAE5"/>
<path d="M23.3729 15.9998C23.3729 19.2932 20.6997 21.9629 17.4022 21.9629C14.1047 21.9629 11.4316 19.2932 11.4316 15.9998C11.4316 12.7065 14.1047 10.0367 17.4022 10.0367C20.6997 10.0367 23.3729 12.7065 23.3729 15.9998Z" fill="#F7FAE5"/>
<path fill-rule="evenodd" clip-rule="evenodd" d="M45.1864 38.8409H25.1885V30.4717H35.498L32.4948 9.87251L40.7873 8.66663L45.1864 38.8409Z" fill="#F7FAE5"/>
</svg>
