<svg width="34" height="34" viewBox="0 0 34 34" fill="none" xmlns="http://www.w3.org/2000/svg">
<path d="M12.6154 23.6161C12.1272 24.1043 12.1272 24.8957 12.6154 25.3839C13.1035 25.872 13.895 25.872 14.3832 25.3839L12.6154 23.6161ZM20.9993 17L21.8832 17.8839C22.3713 17.3957 22.3713 16.6043 21.8832 16.1161L20.9993 17ZM14.3832 8.61612C13.895 8.12796 13.1035 8.12796 12.6154 8.61612C12.1272 9.10427 12.1272 9.89573 12.6154 10.3839L14.3832 8.61612ZM14.3832 25.3839L21.8832 17.8839L20.1154 16.1161L12.6154 23.6161L14.3832 25.3839ZM21.8832 16.1161L14.3832 8.61612L12.6154 10.3839L20.1154 17.8839L21.8832 16.1161Z" fill="#181F20"/>
</svg>
