<svg width="20" height="22" viewBox="0 0 20 22" fill="none" xmlns="http://www.w3.org/2000/svg">
<path d="M13.5627 17.1538V17.9231C13.5627 18.7391 13.2374 19.5218 12.6582 20.0988C12.079 20.6758 11.2935 21 10.4745 21C9.65539 21 8.86987 20.6758 8.2907 20.0988C7.71154 19.5218 7.38616 18.7391 7.38616 17.9231V17.1538M18.7588 15.588C17.5196 14.0769 16.6448 13.3077 16.6448 9.14183C16.6448 5.32692 14.6895 3.96779 13.0802 3.30769C12.8664 3.22019 12.6652 3.01923 12.6001 2.80048C12.3178 1.84327 11.5264 1 10.4745 1C9.4225 1 8.63065 1.84375 8.35125 2.80144C8.28611 3.0226 8.08489 3.22019 7.87112 3.30769C6.2599 3.96875 4.30656 5.32308 4.30656 9.14183C4.30415 13.3077 3.42929 14.0769 2.19011 15.588C1.67669 16.2139 2.12642 17.1538 3.02444 17.1538H17.9293C18.8225 17.1538 19.2693 16.2111 18.7588 15.588Z" stroke="#CFD8D9" stroke-width="2" stroke-linecap="round" stroke-linejoin="round"/>
</svg>
