<svg width="45" height="44" viewBox="0 0 45 44" fill="none" xmlns="http://www.w3.org/2000/svg">
<path d="M15.4068 23.815C14.4914 23.815 13.7493 23.0729 13.7493 22.1575V22.1575C13.7493 21.2421 14.4914 20.5 15.4068 20.5V20.5C16.3222 20.5 17.0643 21.2421 17.0643 22.1575V22.1575C17.0643 23.0729 16.3222 23.815 15.4068 23.815V23.815Z" fill="#181F20"/>
<path d="M22.7908 23.815C21.8753 23.815 21.1333 23.0729 21.1333 22.1575V22.1575C21.1333 21.2421 21.8753 20.5 22.7908 20.5V20.5C23.7062 20.5 24.4483 21.2421 24.4483 22.1575V22.1575C24.4483 23.0729 23.7062 23.815 22.7908 23.815V23.815Z" fill="#181F20"/>
<path d="M30.1747 23.815C29.2593 23.815 28.5172 23.0729 28.5172 22.1575V22.1575C28.5172 21.2421 29.2593 20.5 30.1747 20.5V20.5C31.0901 20.5 31.8322 21.2421 31.8322 22.1575V22.1575C31.8322 23.0729 31.0901 23.815 30.1747 23.815V23.815Z" fill="#181F20"/>
</svg>
