<svg width="23" height="24" viewBox="0 0 23 24" fill="none" xmlns="http://www.w3.org/2000/svg">
<path d="M17.1321 7.36641C16.7682 8.7243 15.6612 9.40151 14.8082 9.17294C13.9551 8.94436 13.335 7.80437 13.6989 6.44649C14.0627 5.0886 15.1697 4.41139 16.0228 4.63996C16.8758 4.86854 17.4959 6.00853 17.1321 7.36641Z" fill="#E8EDED" stroke="#E8EDED"/>
<path d="M10.3003 6.44646C10.6642 7.80434 10.0441 8.94433 9.19104 9.17291C8.33799 9.40148 7.23098 8.72427 6.86714 7.36638C6.50329 6.00849 7.12338 4.8685 7.97643 4.63993C8.82948 4.41136 9.93649 5.08857 10.3003 6.44646Z" fill="#E8EDED" stroke="#E8EDED"/>
<path d="M21.6868 11.9209C21.3229 13.2787 20.2159 13.956 19.3629 13.7274C18.5098 13.4988 17.8897 12.3588 18.2536 11.0009C18.6174 9.64305 19.7244 8.96583 20.5775 9.1944C21.4305 9.42298 22.0506 10.563 21.6868 11.9209Z" fill="#E8EDED" stroke="#E8EDED"/>
<path d="M5.74613 11.0009C6.10998 12.3588 5.48989 13.4988 4.63684 13.7274C3.78379 13.9559 2.67678 13.2787 2.31294 11.9208C1.94909 10.5629 2.56918 9.42295 3.42223 9.19437C4.27529 8.9658 5.38229 9.64302 5.74613 11.0009Z" fill="#E8EDED" stroke="#E8EDED"/>
<path d="M9.02646 11.9178C10.6154 10.1523 13.3838 10.1523 14.9728 11.9178L17.7406 14.9931C19.4781 16.9237 18.108 20 15.5107 20H8.48853C5.89121 20 4.52114 16.9237 6.25865 14.9931L9.02646 11.9178Z" fill="#E8EDED"/>
</svg>
