<svg width="23" height="22" viewBox="0 0 23 22" fill="none" xmlns="http://www.w3.org/2000/svg">
<path d="M11.0168 20.8828H12.7063C12.9928 20.8828 13.2369 20.8014 13.4387 20.6387C13.6471 20.4759 13.7838 20.2546 13.8489 19.9746L14.3079 18.041C14.4511 17.9889 14.5943 17.9336 14.7375 17.875C14.8808 17.8229 15.0175 17.7643 15.1477 17.6992L16.8372 18.7344C17.0715 18.8841 17.3189 18.946 17.5793 18.9199C17.8463 18.8939 18.0774 18.7832 18.2727 18.5879L19.4543 17.4062C19.6562 17.2109 19.7701 16.9798 19.7961 16.7129C19.8222 16.4395 19.7538 16.1855 19.5911 15.9512L18.5657 14.2715C18.6308 14.1348 18.6894 13.998 18.7415 13.8613C18.8 13.7246 18.8521 13.5879 18.8977 13.4512L20.8411 12.9922C21.121 12.9271 21.3424 12.7936 21.5051 12.5918C21.6679 12.39 21.7493 12.1426 21.7493 11.8496V10.1992C21.7493 9.91927 21.6679 9.67839 21.5051 9.47656C21.3424 9.26823 21.121 9.13151 20.8411 9.06641L18.9075 8.60742C18.8619 8.45117 18.8098 8.30469 18.7512 8.16797C18.6926 8.02474 18.6373 7.89453 18.5852 7.77734L19.6106 6.06836C19.7668 5.82747 19.8319 5.57682 19.8059 5.31641C19.7864 5.05599 19.6757 4.82487 19.4739 4.62305L18.2727 3.43164C18.0709 3.24935 17.8463 3.14193 17.5989 3.10938C17.358 3.07682 17.1171 3.12891 16.8762 3.26562L15.1477 4.33008C15.024 4.27148 14.8905 4.21615 14.7473 4.16406C14.6106 4.10547 14.4641 4.04688 14.3079 3.98828L13.8489 2.02539C13.7838 1.74544 13.6471 1.52409 13.4387 1.36133C13.2369 1.19857 12.9928 1.11719 12.7063 1.11719H11.0168C10.7304 1.11719 10.483 1.19857 10.2747 1.36133C10.0728 1.52409 9.94263 1.74544 9.88403 2.02539L9.41528 3.96875C9.27205 4.02734 9.12557 4.08594 8.97583 4.14453C8.8326 4.19661 8.69588 4.25521 8.56567 4.32031L6.84692 3.26562C6.59953 3.12891 6.35539 3.07682 6.1145 3.10938C5.87362 3.14193 5.65226 3.2526 5.45044 3.44141L4.24927 4.62305C4.04093 4.82487 3.927 5.05599 3.90747 5.31641C3.88794 5.57682 3.95304 5.82747 4.10278 6.06836L5.13794 7.77734C5.08586 7.89453 5.03052 8.02474 4.97192 8.16797C4.91333 8.30469 4.85799 8.45117 4.80591 8.60742L2.88208 9.06641C2.59562 9.13151 2.37101 9.26823 2.20825 9.47656C2.052 9.67839 1.97388 9.91927 1.97388 10.1992V11.8496C1.97388 12.1426 2.052 12.39 2.20825 12.5918C2.37101 12.7936 2.59562 12.9271 2.88208 12.9922L4.83521 13.4512C4.87427 13.5879 4.91984 13.7246 4.97192 13.8613C5.03052 13.998 5.09237 14.1348 5.15747 14.2715L4.12231 15.9512C3.96606 16.1855 3.89771 16.4395 3.91724 16.7129C3.94328 16.9798 4.05721 17.2109 4.25903 17.4062L5.45044 18.5879C5.64575 18.7832 5.87362 18.8939 6.13403 18.9199C6.40096 18.946 6.65161 18.8841 6.88599 18.7344L8.57544 17.6992C8.70565 17.7643 8.84237 17.8229 8.9856 17.875C9.12882 17.9336 9.27205 17.9889 9.41528 18.041L9.88403 19.9746C9.94263 20.2546 10.0728 20.4759 10.2747 20.6387C10.483 20.8014 10.7304 20.8828 11.0168 20.8828ZM11.8665 14.2227C11.274 14.2227 10.7336 14.0762 10.2454 13.7832C9.75708 13.4902 9.36646 13.0996 9.07349 12.6113C8.78703 12.123 8.6438 11.5827 8.6438 10.9902C8.6438 10.4043 8.78703 9.87044 9.07349 9.38867C9.36646 8.90039 9.75708 8.50977 10.2454 8.2168C10.7336 7.92383 11.274 7.77734 11.8665 7.77734C12.4589 7.77734 12.996 7.92383 13.4778 8.2168C13.9661 8.50977 14.3534 8.90039 14.6399 9.38867C14.9329 9.87044 15.0793 10.4043 15.0793 10.9902C15.0793 11.5827 14.9329 12.123 14.6399 12.6113C14.3534 13.0996 13.9661 13.4902 13.4778 13.7832C12.996 14.0762 12.4589 14.2227 11.8665 14.2227Z" stroke="#A6B8BA" stroke-width="2"/>
</svg>
