<svg width="23" height="24" viewBox="0 0 23 24" fill="none" xmlns="http://www.w3.org/2000/svg">
<path fill-rule="evenodd" clip-rule="evenodd" d="M21.107 8.81605C21.9276 8.188 22.4569 7.19839 22.4569 6.08516C22.4569 4.18711 20.9183 2.64844 19.0202 2.64844C17.1222 2.64844 15.5835 4.18711 15.5835 6.08516C15.5835 7.84395 16.9047 9.29417 18.6087 9.4975C18.3278 9.86058 18.1606 10.3161 18.1606 10.8107C18.1606 11.997 19.1223 12.9587 20.3086 12.9587C21.4949 12.9587 22.4565 11.997 22.4565 10.8107C22.4565 9.90658 21.8979 9.13291 21.107 8.81605Z" fill="#E8EDED"/>
<path d="M0.983031 9.06629L3.15174 5.30998L8.99286 8.68235L19.7637 14.9009L17.595 18.6572L6.82415 12.4387L0.983031 9.06629Z" fill="#E8EDED"/>
<path d="M19.4175 14.679L21.2565 15.7407C22.3028 16.3448 22.6613 17.6826 22.0572 18.7289V18.7289C21.4531 19.7752 20.1153 20.1336 19.069 19.5296L17.23 18.4678L19.4175 14.679Z" fill="#F0620A"/>
</svg>
